<svg id="Layer_1" enable-background="new 0 0 479.3 479.3" height="512" viewBox="0 0 479.3 479.3" width="512" xmlns="http://www.w3.org/2000/svg"><path d="m369.1 49.9c-2.6-10.9-12.3-18.5-23.5-18.4-39.8.3-75 19.3-97 50.8-37-12.8-77.7-12.8-114.7 0-22-31.5-57.3-50.5-97-50.8-11.2-.1-20.9 7.5-23.5 18.4-10.7 45.1-5.2 91.9 14.9 132.9l.4.1c-45.7 114.6 38.8 239.9 162.7 239.9 124.1 0 208.3-125.5 162.7-239.9l.3-.1c20.1-41.3 25.4-88.3 14.7-132.9z" fill="#ffa4b8"/><path d="m471.3 307.3c0 48.3-39.2 87.5-87.5 87.5-25.4 0-48.2-10.8-64.2-28-45.7-49.3-20.8-130 44.8-144.8 54.8-12.5 106.9 29.2 106.9 85.3z" fill="#d6f4fc"/><ellipse cx="245.3" cy="218.8" fill="#42434d" rx="20" ry="20" transform="matrix(.16 -.987 .987 .16 -9.976 425.824)"/><circle cx="137.3" cy="218.8" fill="#42434d" r="20"/><path d="m260.7 408.4c-14.2 23.6-40 39.3-69.5 39.3-44.7 0-81-36.3-81-81s36.3-81 81-81c63.4.1 101.6 69.4 69.5 122.7z" fill="#ffb1bf"/><path d="m196.8 319.4c-24.7 8.2-44.8 28.4-53 53.2-6.1 18.5-33.5 14.3-33.6-5.1-.3-45 36.4-81.6 81.1-81.6 19.6-.1 24.1 27.3 5.5 33.5z" fill="#ffbfcb"/><path d="m139.1 210.5c-4.4 2-8.1 5.7-10.1 10.1-2.8 6-12.1 4.2-11.7-3.1.6-10 8.9-18.3 19.1-18.7 6.7-.3 8.8 8.9 2.7 11.7z" fill="#4d4e59"/><path d="m247.1 210.5c-4.4 2-8.1 5.7-10.1 10.1-2.8 6-12.1 4.2-11.7-3.1.6-10 8.9-18.3 19.1-18.7 6.7-.3 8.8 8.9 2.7 11.7z" fill="#4d4e59"/><path d="m370.1 137c-4.3 19.9-10.8 35.4-15.9 45.7l-.4.2c-18.8-47-57.3-83.9-105.3-100.6 7.5-10.7 16.5-19.9 26.6-27.5 39.5 17.2 72.6 46.1 95 82.2z" fill="#ff99af"/><path d="m250.7 83c-71.8-25.9-154.3-2.5-201.1 62-5.2-27.2-4.8-55.4 1.8-83.1 2.6-10.9 12.3-18.5 23.5-18.4 3.4 0 4-4.3 1.1-5.3-12.3-4.3-25.4-6.6-39.1-6.7-11.2-.1-20.9 7.5-23.5 18.4-10.7 45.1-5.2 91.9 14.9 132.9l.4.2c-15.5 38.9-16.8 83.3-2.1 124.2 7.8 21.6 40 15.9 39.7-7.1-1.3-98.6 78.9-178.7 177.4-177.4 22.9.3 28.6-31.9 7-39.7z" fill="#ffb1bf"/><path d="m420.3 307.3c0 26.8-28.7 45-53.1 32.5-25.1-12.9-26.7-47.8-3.4-63 24.4-16.1 56.5 1.9 56.5 30.5z" fill="#fe4f60"/><path d="m391.1 293c-9.9 3.7-17.9 11.8-21.6 21.6-4.1 10.8-20.2 9.2-21.8-2.3-3.5-24.7 17.8-44.5 41.1-41.2 11.5 1.7 13.2 17.8 2.3 21.9z" fill="#ff6d7a"/><path d="m183.3 72.8c0-4.4 3.6-8 8-8 70.1 0 131.9 39.5 162.6 99 13.5-35.1 16.5-74 7.5-112-1.7-7.3-8.2-12.3-15.7-12.3-23.6.2-44.9 7.3-62.5 19.5-3.6 2.5-8.6 1.6-11.1-2s-1.6-8.6 2-11.1c20.2-14 44.6-22.1 71.5-22.3 15.7 0 28 10.5 31.3 24.6 10.9 45.8 5.9 94.6-15.5 138.3-2.9 6-12.3 6.4-15-.4-25.5-64.1-86.4-105.3-155.1-105.3-4.5 0-8-3.6-8-8zm97 294c0 49.1-39.9 89-89 89-31.4 0-59.1-16.4-74.9-41-65.8-29.5-108.1-94.8-108.1-167 0-74.3 44.9-140.9 112.8-169.1-20.7-24.4-50.5-39-84.2-39.2-7.5 0-13.9 5-15.7 12.3-6.3 26.6-7 54.7-1.2 82.5.9 4.3-1.9 8.6-6.2 9.5s-8.6-1.9-9.5-6.2c-6-29-5.8-59.5 1.3-89.4 3.3-14 15.7-24.6 31.3-24.6 43.1.3 80.4 21.3 103.5 54.1 3.2 4.3 1.3 10.6-3.8 12.3-67.2 23.2-112.3 86.6-112.3 157.8 0 59.4 31.3 113.6 81.4 143.5-16.3-57 26.8-113.5 85.6-113.5 49 0 89 39.9 89 89zm-16 0c0-40.3-32.7-73-73-73s-73 32.7-73 73 32.7 73 73 73 73-32.8 73-73zm-97-4c-4.4 0-8 3.6-8 8 0 4.4 3.6 8 8 8s8-3.6 8-8c0-4.4-3.6-8-8-8zm48 0c-4.4 0-8 3.6-8 8 0 4.4 3.6 8 8 8s8-3.6 8-8c0-4.4-3.6-8-8-8zm-78-172c15.4 0 28 12.6 28 28s-12.6 28-28 28-28-12.6-28-28 12.5-28 28-28zm0 16c-6.6 0-12 5.4-12 12s5.4 12 12 12 12-5.4 12-12-5.4-12-12-12zm108-16c15.4 0 28 12.6 28 28s-12.6 28-28 28-28-12.6-28-28 12.5-28 28-28zm0 16c-6.6 0-12 5.4-12 12s5.4 12 12 12 12-5.4 12-12-5.4-12-12-12zm192 101-9-1.6c-.3-11.8-5.2-22.5-13-30.3l6.7-9.6c2.5-3.6 1.6-8.6-2-11.1s-8.6-1.6-11.1 2l-6.7 9.7c-11.4-5.2-24.3-5.3-35.6-.5l-5.9-9c-2.4-3.7-7.4-4.7-11.1-2.3s-4.7 7.4-2.3 11.1l5.9 9c-19.9 18.9-18.1 50.9 3.6 67.6l-3.4 6.6c-2.7 5.3 1.2 11.6 7.1 11.6 2.9 0 5.7-1.6 7.1-4.4l3.4-6.6c7.5 2.2 15.2 2.4 22.4.8 4.3-.9 7-5.2 6.1-9.5s-5.2-7-9.5-6.1c-5.8 1.3-12 .8-17.7-1.8-.8-.6-1.7-1.1-2.7-1.4-17.8-10.4-19.2-35.5-2.5-47.7.9-.4 1.7-.8 2.5-1.6 9-5.2 20.2-5.2 29.3.4.8.8 1.5 1.3 2.4 1.7 8.2 6.3 12.4 16.5 10.8 26.9-.7 4.4 2.3 8.4 6.7 9.1.1 0 15.7 2.8 15.9 2.8 4.3.8 8.5-2.1 9.3-6.5.5-4.4-2.4-8.6-6.7-9.3zm42-.5c0 52.7-42.8 95.5-95.5 95.5s-95.5-42.8-95.5-95.5 42.8-95.5 95.5-95.5 95.5 42.8 95.5 95.5zm-16 0c0-43.8-35.7-79.5-79.5-79.5s-79.5 35.7-79.5 79.5 35.7 79.5 79.5 79.5 79.5-35.7 79.5-79.5z"/></svg>